<?xml version="1.0" encoding="UTF-8"?>
<svg version="1.0" viewBox="0 0 188.5068 200.17742" xmlns="http://www.w3.org/2000/svg">
 <defs>
  <radialGradient id="a" cx="456.31" cy="448.48" r="35.801" gradientTransform="matrix(.41699 -.14275 .291 .47544 130.3 -75.017)" gradientUnits="userSpaceOnUse">
   <stop stop-color="#e79b9e" offset="0"/>
   <stop stop-color="#890f18" stop-opacity="0" offset="1"/>
  </radialGradient>
 </defs>
 <g transform="translate(-338.35 -51.011)">
  <path d="m433.22 87.938c-15.018-0.24907-30.008 2.4849-44.349 6.6418-16.419 4.3583-30.845 14.443-40.528 27.98-5.5607 6.2516-13.48 16.868-8.3173 24.435 6.9379 5.5238 2.2506 7.6858 8.4752 11.746 4.305 8.7023 8.0818 17.697 11.553 26.741 4.5377 12.845 5.5046 26.435 6.8956 39.83 2.0119 9.299 12.399 13.14 20.677 15.877 14.862 4.137 30.04 7.659 45.623 7.5326 13.868 0.61471 28.094 0.72851 41.25-4.2283 8.6694-2.3593 17.897-5.9206 23.621-12.925 3.2738-8.6748 2.3808-18.289 4.1761-27.324 2.3505-15.121 9.0269-29.063 15.34-42.915 4.9329-4.1512 4.5176-10.037 8.7558-13.376 1.9199-10.7-2.3112-19.569-8.8504-26.485-9.1831-9.4443-19.628-18.165-32.22-23.008-12.972-6.262-27.555-8.1792-41.718-10.195-3.4569-0.21913-6.9218-0.30266-10.385-0.32572z" fill="#cb763a"/>
  <path d="m344.98 151.89c0.3117 0.48223 0.8431 1.3739 1.3437 2.302 0.5007 0.92807 1.3545 2.393 1.875 3.2755 0.5206 0.87347 1.4318 2.6295 2.0309 4.0307 0.6 1.4012 1.169 2.7569 1.282 2.9844 0.113 0.23657 0.091 0.67331 0.562 1.3648 0.187 0.52772 0.428 1.1919 0.563 1.4831 0.134 0.29116 0.727 1.7742 1.312 3.2664 0.585 1.5013 1.198 2.9571 1.375 3.2755 0.177 0.30935 0.339 0.6733 0.344 0.79158 5e-3 0.11829 0.274 0.7279 0.594 1.3648 1.868 3.7578 2.948 6.7148 5.561 16.259 0.887 3.2391 1.821 7.8886 2.218 10.627 0.076 0.52772 0.324 2.3293 0.438 3.0299 0.115 0.7006 0.457 2.4112 0.534 3.6941s0.316 4.2309 0.624 6.6784c0.307 2.4566 0.552 5.7595 0.686 7.4518 0.288 3.6486 1.274 4.9861 1.502 5.5411 0.563 1.3648 1.067 2.8206 1.683 3.2664 0.28 0.20927 0.847 0.79159 1.282 1.2829 0.434 0.49133 2.663 2.1291 5 3.4393 0.956 0.53682 3.191 2.0836 5.437 3.0754 0.134 0 1.526 0.58231 3.281 1.1646 2.403 1.0554 3.234 0.93716 5.592 1.5559 0.895 0.19108 2.609 0.79159 3.25 0.93717 0.641 0.15468 1.587 0.44583 2.75 0.80068 1.628 0.35485 2.499 0.53683 4.094 1.11 1.744 0.36395 3.235 0.93717 3.843 0.99176 0.609 0.0546 1.693 0.27296 2.438 0.48223 0.745 0.21837 2.419 0.57322 3.437 0.6551 1.019 0.25477 2.5 0.48223 2.938 0.54593 0.438 0.0546 1.418 0.18197 2.187 0.30935 1.826 0.29116 7.527 0.82798 10.532 0.99176 1.99 0.10918 6.543 0.38214 16.282 0.48223 3.43 0.0455 6.6 0.30025 8.21 0.14558 1.51-0.13648 2.97-0.22747 3.25-0.19108 0.29 0.0273 0.77-0.0273 1.07-0.11828 0.32-0.10008 6.36-0.77339 6.96-0.82798 0.61-0.0455 8.96-2.1655 9.16-2.3293 0.2-0.15468 3.89-1.3193 4.78-1.5013 2.94-0.6278 2.99-1.2283 5.78-1.8197 1.31-0.58232 2.49-1.0554 2.63-1.0554 0.13 0 1.04-0.45493 2-0.99176 2.34-1.3193 8.66-5.1408 9.09-5.6321 0.44-0.50043 1-1.0736 1.28-1.2829 0.62-0.44583 1.69-1.9016 2.26-3.2664 0.22-0.55502 1.02-2.2383 1.31-5.8868 0.13-1.6924 0.47-5.0862 0.78-7.5337 0.31-2.4566 0.64-5.5138 0.72-6.7967s0.23-2.9116 0.34-3.6122c0.12-0.7006 0.27-1.6924 0.35-2.2201 0.39-2.7387 1.33-7.5064 2.21-10.746 2.62-9.5445 3.79-12.993 5.66-16.751 0.32-0.6369 0.59-1.2738 0.59-1.3921 0.01-0.10918 0.17-0.45493 0.35-0.76429 0.17-0.30935 0.79-1.8015 1.37-3.3028 0.59-1.4922 1.18-2.948 1.31-3.2391 0.14-0.29116 0.41-0.95536 0.6-1.474 0.18-0.52772 0.42-1.1646 0.53-1.3921 0.11-0.23656 0.68-1.5559 1.28-2.9571s1.54-3.2755 2.06-4.1581c0.52-0.87347 1.25-2.1655 1.75-3.0936s1.16-1.9653 1.47-2.302 0.56-0.81888 0.56-1.0827c0-0.46403 0.44-1.3193-0.87-1.6196-1.45-0.33665-4.09-0.30935-5.25 0.0546-1.28 0.41853-1.67 0.71879-3.81 2.9025-0.99 1.01-2.15 1.9835-2.56 2.1655-0.59 0.24567-1.45 0.30026-3.97 0.22747-3.3-0.10009-4.19 9e-3 -6.38 0.79159-1.19 0.42763-2.09 1.2283-4.28 3.785-1.36 1.5923-2.06 1.7651-7.53 1.7651-4.49 0-7.64 0.31846-8.15 0.64601-0.75 0.27296-1.42 0.85528-2.32 1.656-0.89 0.79159-2.07 1.7378-2.62 2.1018-0.96 0.62781-1.09 0.6733-2.85 0.60051-1.02-0.0546-3.06-0.40034-4.62-0.77339-3.21-0.76429-5.53-0.88257-7.03-0.33665-0.52 0.18197-0.53 0.22747-1.1 0.53682-0.98 0.60052-1.55 0.90077-2.9 1.7652-2.71 1.7288-3.63 1.9744-6.03 1.7014-1.08-0.11828-1.52-0.30935-2.85-1.2738-0.86-0.63691-1.9-1.3193-2.34-1.5104-0.75-0.32755-0.9-0.32755-2 0.0273-0.65 0.20927-2.07 0.87347-3.157 1.4558-1.09 0.57322-2.378 1.1737-2.875 1.3284-0.497 0.16377-1.407 0.30025-2 0.29116-1.444-0.0273-4.298-1.1828-5.969-2.4202-1.761-1.3011-2.727-1.6378-4.313-1.5377-1.866 0.12738-3.902 0.53682-4.843 1.0008-0.452 0.21837-1.41 0.50043-2.125 0.61871-0.715 0.12739-1.569 0.33666-1.907 0.42764-0.337 0.10009-1.21 0.0819-1.937-0.0273-1.504-0.20927-2.414-0.83708-3.938-2.7023-1.883-2.302-4.5-2.7023-9.625-1.474-1.556 0.37305-3.603 0.7188-4.625 0.76429-1.751 0.0819-1.881 0.0637-2.843-0.56412-0.555-0.36395-1.731-1.3102-2.625-2.1109-0.894-0.79159-1.918-1.5559-2.282-1.6742-1.448-0.48223-3.669-0.65511-8.156-0.65511-5.47 0-6.203-0.17287-7.562-1.7651-2.183-2.5476-3.085-3.321-4.282-3.7487-2.185-0.78249-3.073-0.91897-6.375-0.82798-2.521 0.0728-3.376 0.0546-3.968-0.20017-0.415-0.17288-1.543-1.1464-2.532-2.1564-2.139-2.1837-2.563-2.493-3.843-2.9025-1.1578-0.37305-3.7939-0.41854-5.2503-0.0819-1.3088 0.30026-0.4322 2.302-0.0883 2.8115z" fill="#e0d5a9"/>
  <path d="m348.06 149.3c-0.9857-0.0182-2.0218 0.0364-2.75 0.20017-1.3088 0.30026-0.4063 2.302-0.0625 2.8206 0.3117 0.48223 0.8431 1.3739 1.3438 2.302 0.5006 0.91897 1.3544 2.393 1.875 3.2664 0.5205 0.87347 1.4317 2.6386 2.0311 4.0398 0.6 1.4012 1.168 2.7478 1.281 2.9844 0.113 0.23657 0.092 0.66421 0.563 1.3648 0.187 0.52773 0.428 1.1828 0.562 1.474 0.135 0.29116 0.728 1.7742 1.313 3.2755 0.585 1.4922 1.198 2.9571 1.375 3.2664 0.177 0.30935 0.339 0.6824 0.344 0.80068s0.274 0.7188 0.593 1.3648c1.869 3.7487 2.949 6.7148 5.563 16.259 0.886 3.2391 1.822 7.8886 2.219 10.636 0.076 0.52772 0.323 2.3111 0.437 3.0117 0.115 0.7006 0.454 2.4112 0.531 3.6941s0.318 4.2309 0.625 6.6875c0.308 2.4476 0.554 5.7595 0.688 7.4518 0.288 3.6395 1.272 4.9861 1.5 5.5411 0.562 1.3648 1.071 2.8206 1.687 3.2664 0.28 0.20927 0.847 0.78249 1.282 1.2829 0.434 0.49132 2.663 2.1291 5 3.4393 0.956 0.53682 3.191 2.0836 5.437 3.0754 0.134 0 1.526 0.58232 3.281 1.1646 2.403 1.0554 3.205 0.93716 5.563 1.565 0.895 0.18197 2.609 0.78249 3.25 0.93716 0.641 0.14558 1.587 0.44584 2.75 0.79159 1.628 0.35485 2.499 0.53682 4.094 1.11 1.744 0.36395 3.234 0.94626 3.843 0.99176 0.609 0.0546 1.693 0.27296 2.438 0.49132 0.745 0.20927 2.419 0.56412 3.437 0.64601 1.019 0.25476 2.5 0.49133 2.938 0.54592 0.438 0.0546 1.418 0.19108 2.187 0.30936 1.826 0.29116 7.527 0.83708 10.532 1.0008 1.99 0.10009 6.543 0.37305 16.282 0.48223 3.43 0.0364 6.6 0.29116 8.22 0.13648 1.51-0.13648 2.96-0.22746 3.25-0.20017 0.28 0.0364 0.77-0.0182 1.06-0.10918 0.32-0.10009 6.36-0.77339 6.97-0.82798 0.61-0.0455 8.95-2.1746 9.16-2.3293 0.2-0.15467 3.88-1.3193 4.78-1.5104 2.93-0.61871 2.99-1.2283 5.78-1.8197 1.3-0.57322 2.49-1.0464 2.62-1.0464 0.14 0 1.05-0.46404 2-1.0009 2.34-1.3102 8.66-5.1317 9.1-5.623 0.43-0.50042 1-1.0827 1.28-1.2829 0.61-0.44584 1.69-1.9016 2.25-3.2664 0.23-0.55502 1.02-2.2383 1.31-5.8868 0.13-1.6924 0.47-5.0862 0.78-7.5337 0.31-2.4566 0.64-5.5138 0.72-6.7967s0.23-2.9116 0.34-3.6122c0.12-0.7006 0.27-1.6924 0.35-2.2201 0.09-0.63691 0.35-1.6924 0.5-2.5021-1.93 1.7196-3.77 3.5485-5.75 5.1772-18.47 16.205-46.68 23.284-70.971 14.358-29.648-10.236-44.595-37.45-54.063-63.318-0.069-0.0819-0.146-0.11829-0.218-0.20018-2.184-2.5567-3.085-3.3301-4.282-3.7578-2.185-0.78249-3.073-0.91897-6.375-0.81888-2.521 0.0728-3.376 0.0455-3.968-0.20018-0.415-0.17287-1.543-1.1555-2.532-2.1655-2.139-2.1837-2.563-2.4839-3.843-2.8934-0.5792-0.19108-1.5146-0.27296-2.5004-0.29116z" fill="#342216" opacity=".1"/>
  <path d="m351.46 130.05c-0.059 0.30026-0.719 1.1555-1.4995 1.9107-1.5038 1.4376-4.8508 5.5866-5.25 6.0506s-0.9118 1.1555-1.125 1.5377c-0.2132 0.38214-1.0374 1.2374-1.375 1.9016-0.3376 0.67331-0.7172 1.3648-0.8437 1.5377-0.94202 1.3011-1.1843 3.7669-0.50005 5.1772 0.26035 0.53682 0.91965 0.90987 1.3438 1.3375 0.8876 0.50953 2.0623 2.0472 2.4062 2.5567 0.3116 0.48223 0.8431 1.3739 1.3437 2.302 0.5006 0.92806 1.3544 2.393 1.875 3.2755 0.5206 0.87348 1.4317 2.7205 2.0313 4.1217 0.5992 1.4012 1.1682 2.7478 1.2812 2.9844 0.113 0.22746 0.376 0.83708 0.562 1.3648 0.187 0.51862 0.429 1.1828 0.563 1.474 0.134 0.29115 0.727 1.7742 1.313 3.2755 0.585 1.4922 1.197 2.9571 1.374 3.2664 0.178 0.30936 0.339 0.6824 0.344 0.80069 5e-3 0.10918 0.275 0.71879 0.594 1.3648 1.869 3.7487 3.043 7.2334 5.656 16.769 0.887 3.2391 1.916 8.0614 2.313 10.809 0.076 0.51863 0.229 1.5468 0.343 2.2474 0.115 0.7006 0.267 2.3202 0.344 3.6122 0.077 1.2829 0.411 4.3128 0.719 6.7603 0.308 2.4566 0.648 5.8414 0.781 7.5337 0.288 3.6486 1.084 5.3318 1.313 5.8868 0.562 1.3648 1.446 2.7387 2.062 3.1845 0.28 0.20927 0.847 0.78249 1.281 1.2829 0.435 0.49133 2.664 2.1291 5 3.4393 0.956 0.53682 3.192 2.0836 5.438 3.0754 0.134 0 1.526 0.58232 3.281 1.1646 2.402 1.0554 3.423 1.1919 5.781 1.8197 0.896 0.18197 2.609 0.78249 3.25 0.93717 0.642 0.15467 1.588 0.44583 2.75 0.79158 1.629 0.35485 2.499 0.53682 4.094 1.11 1.745 0.36395 3.235 0.94626 3.844 1.0009 0.609 0.0455 1.693 0.26386 2.438 0.48223 0.744 0.20927 2.418 0.56411 3.437 0.6551 1.019 0.24567 2.499 0.48223 2.937 0.53682 0.439 0.0546 1.419 0.19108 2.188 0.30936 1.826 0.29116 7.526 0.83708 10.531 1.0008 1.991 0.10919 6.543 0.37305 16.283 0.48223 3.43 0.0364 6.97-0.0546 8.59-0.20017 1.51-0.14558 2.97-0.22746 3.25-0.20017 0.29 0.0273 0.77-0.0273 1.06-0.10918 0.33-0.10009 6.36-0.77339 6.97-0.82798 0.61-0.0546 8.96-2.1746 9.16-2.3293 0.2-0.16377 3.89-1.3193 4.78-1.5104 2.94-0.61871 2.99-1.2283 5.78-1.8197 1.31-0.57322 2.49-1.0554 2.63-1.0554 0.13 0 1.04-0.45494 2-0.99176 2.33-1.3102 8.66-5.1317 9.09-5.6321 0.44-0.49133 1-1.0736 1.28-1.2738 0.62-0.45493 1.5-1.8197 2.06-3.1845 0.23-0.55502 1.03-2.2383 1.32-5.8868 0.13-1.6924 0.47-5.0862 0.78-7.5337 0.31-2.4566 0.64-5.5138 0.72-6.7967 0.07-1.2829 0.23-2.9116 0.34-3.6122 0.12-0.70059 0.27-1.6924 0.34-2.2201 0.4-2.7387 1.43-7.5974 2.32-10.827 2.61-9.5445 3.78-12.993 5.65-16.751 0.32-0.64601 0.59-1.2738 0.6-1.3921 0-0.11828 0.16-0.45493 0.34-0.77339 0.18-0.30935 0.79-1.8015 1.38-3.2937 0.58-1.5013 1.17-2.948 1.31-3.2391 0.13-0.29116 0.41-0.95536 0.59-1.4831 0.19-0.52772 0.42-1.1555 0.53-1.3921 0.12-0.23656 0.69-1.5559 1.28-2.9571 0.6-1.4012 1.55-3.2755 2.07-4.149s1.34-2.3475 1.84-3.2755c0.5-0.91896 1.16-1.9653 1.47-2.302 0.31-0.33666 0.56-0.80979 0.56-1.0736 0-0.47313 0.92-1.1009 2.06-1.6833 0.51-0.42763 0.74-0.57321 1-1.11 0.38-0.77338 0.48-1.2556 0.38-2.3838-0.13-1.5013-0.91-3.8032-1.84-5.4865-1.81-3.2664-4.46-7.6247-4.94-8.1342-0.2-0.20927-0.43 0.6733-0.13 1.2192 0.18 0.31846 1.1 1.847 2.03 3.3847 2.08 3.4302 2.31 3.9761 2.91 5.35 0.16 0.36395 1.09 3.3119 1.09 4.3765 0.01 0.6369-0.17 1.0554-0.68 1.6196-0.97 1.0646-1.82 1.3557-3.13 1.0554-1.45-0.33665-4.09-0.31845-5.25 0.0546-1.28 0.40944-1.67 0.7188-3.81 2.9025-0.99 1.01-2.15 1.9835-2.56 2.1564-0.6 0.25476-1.45 0.30026-3.97 0.22747-3.3-0.091-4.19 0.0182-6.38 0.80068-1.19 0.42764-2.09 1.2192-4.28 3.776-1.36 1.5923-2.06 1.7651-7.53 1.7651-4.49 0-7.64 0.31846-8.16 0.65511-0.74 0.26386-1.41 0.85527-2.31 1.6469-0.89 0.80068-2.07 1.747-2.62 2.1018-0.96 0.6278-1.09 0.6824-2.85 0.60051-1.02-0.0455-3.06-0.39125-4.62-0.76429-3.21-0.77339-5.53-0.89167-7.03-0.34575-0.52 0.19107-0.53 0.23656-1.1 0.54592-0.98 0.60051-1.55 0.89167-2.9 1.756-2.71 1.7378-3.63 1.9835-6.03 1.7106-1.08-0.12738-1.52-0.30936-2.85-1.2829-0.86-0.62781-1.9-1.3102-2.34-1.5013-0.75-0.32755-0.9-0.32755-2 0.0273-0.65 0.20927-2.07 0.86437-3.158 1.4467-1.09 0.58231-2.378 1.1737-2.875 1.3375-0.497 0.15468-1.407 0.29116-2 0.28206-1.443-0.0182-4.298-1.1737-5.969-2.4112-1.76-1.3102-2.727-1.6469-4.312-1.5377-1.866 0.12739-3.902 0.53683-4.844 0.99176-0.452 0.21837-1.41 0.50043-2.125 0.62781s-1.569 0.32755-1.906 0.42764c-0.337 0.091-1.21 0.0728-1.937-0.0273-1.505-0.21837-2.414-0.83708-3.938-2.7023-1.884-2.3111-4.5-2.7114-9.625-1.4831-1.557 0.37304-3.603 0.71879-4.625 0.77339-1.752 0.0819-1.882 0.0546-2.844-0.57322-0.554-0.36395-1.731-1.3102-2.625-2.1018-0.894-0.80068-1.918-1.5559-2.281-1.6742-1.449-0.48223-3.669-0.6551-8.156-0.6551-5.47 0-6.204-0.17288-7.563-1.7652-2.183-2.5567-3.084-3.321-4.281-3.7578-2.186-0.78249-3.074-0.91897-6.375-0.81888-2.521 0.0728-3.376 0.0455-3.969-0.20018-0.414-0.17287-1.542-1.1555-2.531-2.1655-2.139-2.1837-2.564-2.4839-3.844-2.8934-1.1573-0.37305-3.7934-0.41854-5.2498-0.091-1.3087 0.30026-2.1601 0.0182-3.125-1.0464-0.5132-0.57322-0.6895-0.99176-0.6874-1.6196 4e-3 -1.1555 0.4957-2.7387 1.2812-4.1581 0.3564-0.6369 0.7204-1.3011 0.8125-1.474 0.092-0.17288 1.3877-1.656 1.6563-1.938 0.2685-0.28206 0.876-1.1282 1.375-1.9016 0.4989-0.77339 1.204-1.6287 1.5624-1.9016 0.3585-0.28206 1.841-2.1655 2.6878-3.0481l0.625-0.65511s0.118-1.4922 0.093-1.3648zm-4.0932 19.817c1.8752-0.11829 3.9172 0.75519 6.4062 3.5576 0.473 0.53682 1.352 1.2283 1.969 1.565 1.118 0.60961 1.137 0.62781 5.094 0.62781h3.968l1.563 0.70969c0.991 0.44584 1.764 0.94627 2.093 1.3921 1.017 1.3557 3.134 3.2664 4.157 3.7487 0.989 0.47313 1.261 0.51862 6.156 0.54592 7.039 0.0364 7.423 0.10919 10.219 2.5294 2.752 2.3838 3.57 2.7205 6.187 2.5294 1.091-0.0819 2.141-0.21837 2.344-0.30936 0.93-0.44583 4.682-1.1191 6.187-1.11 2.213 9e-3 3.116 0.38215 4.407 1.8743 0.581 0.67331 1.637 1.6196 2.312 2.0745 1.172 0.80069 1.294 0.81889 2.969 0.82798 1.93 9e-3 4.41-0.35484 5.344-0.80068 1.197-0.56412 2.494-0.95536 3.75-1.11 2.387-0.28206 2.96-0.10918 5.25 1.5104 0.762 0.53682 2.155 1.3193 3.125 1.7378 1.686 0.7279 1.857 0.75519 3.531 0.61871 1.811-0.13648 4.35-1.0736 6.374-2.3293 1.45-0.89167 2.43-1.0554 3.34-0.53682 0.43 0.23656 0.34 0.27296 0.79 0.59141 0.33 0.30936 1.98 1.4558 3.09 1.7924 1.7 0.52773 2.72 0.59142 4.09 0.22747 1.29-0.33665 1.75-0.57322 5.16-2.6113 2.68-1.6014 3.12-1.756 5.03-1.7652 1.51-9e-3 5.26 0.82798 6.19 1.1373 0.2 0.10008 1.25 0.23656 2.34 0.30935 2.62 0.19107 3.44-0.14558 6.19-2.5294 2.8-2.4202 3.18-2.5203 10.22-2.5567 4.9-0.0273 5.16-0.0364 6.15-0.50953 1.09-0.51862 2.86-2.1109 3.91-3.503 1.34-1.7652 3.78-2.4294 8.56-2.3293 2.99 0.0637 3.05 0.0455 4.28-0.59141 0.69-0.36395 1.62-1.0827 2.1-1.6287 1.44-1.6196 2.69-2.6841 3.03-2.9207 1.1-0.64601 1.75-0.56412 3.28-0.51863 2.13 0.0728 2.62 0.43674 2.47 0.97356-0.12 0.39124-1.13 2.12-2.38 3.9215-1.12 1.6196-3.21 5.7595-4.12 8.1615-0.35 0.92807-0.77 1.9744-0.94 2.3293-0.17 0.34575-0.83 2.0017-1.5 3.6941-1.1 2.8115-2.15 5.2681-2.94 6.915-1.38 2.9025-2.22 5.0862-3.37 8.6438-1.24 3.8214-3.07 10.736-3.97 14.976-0.94 4.4493-0.9 4.1672-1.16 6.8604-0.76 8.0068-0.95 9.9267-1.15 11.082-0.12 0.7097-0.3 2.0017-0.38 2.8752-0.47 5.6048-1.72 9.6264-2.62 10.773-1.15 1.474-4.09 3.5758-6.03 4.8951-0.2-0.87348 0.92-11.382 1.15-13.138 0.34-1.7288 1.24-7.9159 1.66-11.373 0.12-1.019 0.3-2.302 0.41-2.8752 0.1-0.56412 0.32-1.8015 0.46-2.7569 0.14-0.94626 0.41-2.5658 0.6-3.5758 0.19-1.019 0.45-2.4112 0.56-3.1026 0.12-0.7006 0.37-2.0381 0.56-2.9844 0.36-1.7378 0.47-2.1746 1.03-4.6949 0.18-0.75519 0.5-2.302 0.72-3.4393 0.85-4.2036 2.71-10.928 3.91-14.048 0.36-0.93717 1.01-2.675 1.44-3.8669 0.86-2.3657 1.12-2.9935 2.62-6.6784 0.56-1.3739 1.08-2.7387 1.16-3.039s1.14-2.5294 1.37-3.3574c0.04-0.14558-0.36-1.3102-1.78 2.1291-1.47 3.5758-4.79 12.119-5.4 13.875-0.24 0.67331-0.73 1.9744-1.07 2.9025-0.33 0.92807-0.81 2.4566-1.06 3.412-1.07 4.1308-1.74 6.8604-1.94 7.8158-0.47 2.3566-0.91 4.613-1.4 6.9969-0.29 1.3921-0.64 3.2391-0.78 4.1217-0.14 0.89167-0.41 2.4112-0.6 3.3574-0.3 1.5013-0.71 3.8032-1.44 8.4982-0.32 2.0927-0.62 4.3492-0.96 7.0242-0.18 1.3921-0.68 3.9852-0.82 4.9224-0.13 0.92807-0.5 4.0853-0.65 4.6039-0.27 2.5931-0.31 1.201-0.53 4.24-0.23 3.0208-0.47 5.7959-0.54 5.9141 0 0 0.01 0.0273 0 0.0273-0.09 0.0546-0.53 0.35485-0.56 0.36394-0.35 0.14558-1.37 0.7188-2.25 1.2556-0.88 0.52773-2.03 1.0828-2.56 1.2465-0.53 0.16378-1.56 0.55502-2.31 0.85528-0.87 0.35485-2.96 0.93716-3 0.88257-0.29-0.41854 0.35-11.373 0.5-13.138 0.24-1.6924 0.82-7.7612 1.06-11.146 0.07-0.99176 0.17-2.2838 0.25-2.8388 0.08-0.56412 0.22-1.7742 0.31-2.7023 0.09-0.93716 0.3-2.5021 0.44-3.4939 0.14-1.0009 0.33-2.3657 0.41-3.0481 0.07-0.6824 0.26-1.9926 0.4-2.9298 0.27-1.7014 0.32-2.1564 0.75-4.6312 0.13-0.74609 0.4-2.2656 0.56-3.3847 0.63-4.1399 2.15-10.782 3.19-13.876 0.31-0.92806 0.85-2.6295 1.22-3.8123 0.74-2.3475 0.97-2.9935 2.28-6.6511 0.49-1.3648 0.94-2.7205 1-3.0117 0.06-0.30025 1.03-2.4748 1.22-3.3028 0.03-0.13648-0.45-1.2738-1.69 2.1382-1.28 3.5485-4.16 12.019-4.68 13.757-0.2 0.66421-0.62 1.9835-0.91 2.9025-0.29 0.91897-0.68 2.4202-0.88 3.3574-0.85 4.0671-1.38 6.7603-1.53 7.7066-0.34 2.3111-0.69 4.5312-1.06 6.8786-0.22 1.3648-0.47 3.1936-0.56 4.0671-0.1 0.86438-0.3 2.3384-0.44 3.2664-0.22 1.4831-0.49 3.7487-0.97 8.3617-0.21 2.0563-0.39 4.2582-0.59 6.8786-0.11 1.3648-0.48 3.9215-0.56 4.8314-0.09 0.91897-0.31 4.0125-0.44 4.522-0.14 2.5385-0.22 1.1555-0.28 4.1217-0.07 2.8934-0.19 5.4774-0.25 5.6867-0.01 9e-3 -0.05 0.0273-0.07 0.0273-0.74 0.20927-2.56 0.77339-4.09 1.2283-1.52 0.45493-2.92 0.81888-3.09 0.81888-0.19 0-1.38 0.31845-1.38 0.31845l-2.22 0.53682c-0.29 0.0728-0.65 0.19108-1 0.28206-0.31-0.51862-0.45-11-0.43-12.702 0.12-1.6651 0.22-7.5974 0.21-10.891 0-0.97356 0.06-2.211 0.1-2.7569 0.04-0.55502 0.07-1.7378 0.09-2.6477 0.03-0.90986 0.09-2.4657 0.16-3.4393s0.16-2.3202 0.19-2.9844c0.02-0.6733 0.11-1.9653 0.18-2.8752 0.14-1.6742 0.19-2.0836 0.44-4.522 0.08-0.72789 0.23-2.2292 0.31-3.321 0.33-4.058 1.35-10.582 2.16-13.648 0.24-0.92806 0.68-2.6477 0.97-3.8123 0.57-2.3293 0.74-2.9389 1.78-6.5693 0.39-1.3557 0.74-2.6932 0.78-2.9844 0.04-0.29116 0.84-2.493 0.97-3.3028 0.02-0.13648-0.51-1.201-1.5 2.1928-1.03 3.5303-3.32 11.928-3.72 13.648-0.15 0.65511-0.43 1.9289-0.66 2.8388-0.22 0.91897-0.52 2.4112-0.65 3.3301-0.56 4.0125-0.9 6.6329-0.97 7.561-0.18 2.2747-0.36 4.4493-0.56 6.7421-0.12 1.3375-0.22 3.1299-0.25 3.9761-0.03 0.85528-0.12 2.302-0.19 3.2209-0.12 1.4467-0.23 3.6759-0.38 8.1888-0.06 2.0017-0.11 4.149-0.12 6.7057-0.01 1.3375-0.17 3.8306-0.19 4.7222s-0.03 3.9306-0.12 4.4311c0.04 2.4748-0.12 1.1555 0.03 4.0398 0.13 2.6386 0.18 4.704 0.15 5.1772-0.71 0.19107-1.45 0.39124-1.96 0.53682-1.24 0.35485-2.73 0.59142-3.97 0.65511-1.09 0.0546-3.18 0.25476-4.66 0.42763-0.42 0.0455-1.05 0.0455-1.59 0.0819-0.33-0.49133-1.25-11.464-1.35-13.129 0.01-1.6378-0.3-7.4154-0.53-10.636-0.07-0.94627-0.12-2.1655-0.12-2.7023 0-0.53683-0.03-1.7015-0.07-2.584-0.04-0.89167-0.09-2.402-0.09-3.3574 0-0.95537-0.01-2.2747-0.03-2.9298-0.02-0.65511-0.01-1.9198 0-2.8115 0.02-1.6469 0.02-2.0745 0.09-4.4675 0.03-0.7188 0.03-2.1928 0.03-3.2664 0.03-3.9852 0.58-10.409 1.13-13.457 0.16-0.90987 0.44-2.6204 0.62-3.776 0.37-2.302 0.5-2.9116 1.22-6.5147 0.27-1.3375 0.49-2.6659 0.5-2.9571 0.02-0.28206 0.62-2.493 0.69-3.2937 0.01-0.14558-0.56-1.1282-1.25 2.2474-0.72 3.503-2.28 11.828-2.53 13.53-0.1 0.646-0.29 1.9107-0.44 2.8115-0.14 0.90987-0.28 2.393-0.34 3.3028-0.25 3.9488-0.4 6.542-0.41 7.4518-0.01 2.2201-0.03 4.3674-0.06 6.6238-0.02 1.3102 0 3.0572 0.03 3.8942 0.03 0.82798 0.04 2.2292 0.03 3.13-0.01 1.4194 0.05 3.6031 0.22 8.0159 0.08 1.9653 0.18 4.0671 0.34 6.5692 0.09 1.3011 0.09 3.7578 0.13 4.6312 0.04 0.87347 0.27 3.8214 0.22 4.3219 0.21 2.4112-0.05 1.1191 0.28 3.9215 0.33 2.7842 0.57 5.35 0.53 5.4956-3.42 0.21837-7.84 0.41854-9.09 0.41854-1.64 9e-3 -6.679-0.0819-7.128-0.0819h-0.812l0.031-3.4393c0.037-2.2565 0.22-8.3708 0.187-19.135-0.041-13.912-0.048-29.744-0.031-39.352 7e-3 -3.6213-0.045-8.3344-0.125-10.463-0.132-3.5576-0.203-3.867-0.594-3.867-0.409 0-0.399 1.1464-0.406 30.817-8e-3 36.167-0.121 40.098-0.156 42l-0.062 3.4393-7.282-0.48223c-2.395-0.14557-5.898-0.59141-9.031-1.0282 9e-3 -0.6642 0.118-2.393 0.344-4.886 0.262-2.8934 0.013-1.5832 0.156-4.0671-0.07-0.50953 0.047-3.5667 0.063-4.4675 0.015-0.89167-0.047-3.4029 0-4.7404 0.089-2.5749 0.142-4.7495 0.156-6.7694 0.03-4.5402-4e-3 -6.7603-0.063-8.2161-0.037-0.91896-0.065-2.393-0.062-3.2482 3e-3 -0.85527-0.029-2.6568-0.094-4.0034-0.111-2.3202-0.224-4.513-0.313-6.7967-0.036-0.93716-0.253-3.5758-0.656-7.6247-0.093-0.92806-0.345-2.4566-0.531-3.3756-0.186-0.92806-0.438-2.2383-0.563-2.9025-0.327-1.7378-2.268-10.245-3.156-13.821-0.853-3.4393-1.424-2.3839-1.406-2.2474 0.102 0.81889 0.815 3.0299 0.844 3.3301 0.029 0.29116 0.321 1.6742 0.656 3.039 0.899 3.685 1.025 4.3037 1.5 6.6511 0.238 1.1828 0.606 2.9389 0.812 3.8669 0.69 3.1118 1.493 9.7083 1.657 13.794 0.044 1.1009 0.108 2.6204 0.156 3.3574 0.16 2.4566 0.175 2.8934 0.25 4.5766 0.041 0.91897 0.091 2.2019 0.094 2.8752 2e-3 0.6642 0.032 2.029 0.062 3.0117 0.031 0.98266 0.044 2.5203 0.031 3.4393-0.012 0.91896-0.016 2.12 0 2.675 0.017 0.54592 0.01 1.8106-0.031 2.7842-0.138 3.3119-0.245 9.2716-0.187 10.946-0.048 1.7014-0.607 12.038-0.938 12.684-2.993-0.42764-5.64-0.85527-5.968-0.93716-0.129-0.0364-1.348-0.26386-2.407-0.45494-1.377-0.19107-1.5-0.33665-2.5-0.57321-0.812-0.22747-2.087-0.57322-3.375-0.93717-0.05-0.17287 0.01-2.7569 0.156-5.6048 0.15-2.8843-0.015-1.565 0.032-4.0307-0.09-0.50952-0.106-3.5212-0.125-4.4129-0.02-0.89167-0.182-3.3847-0.188-4.7131-0.01-2.5658-0.059-4.7313-0.125-6.7421-0.147-4.5038-0.227-6.7148-0.344-8.1615-0.073-0.90987-0.156-2.3657-0.187-3.2118-0.031-0.85528-0.164-2.6386-0.281-3.9852-0.201-2.2929-0.385-4.4675-0.563-6.733-0.072-0.92807-0.408-3.5576-0.969-7.561-0.129-0.92806-0.402-2.4202-0.624-3.3301-0.223-0.90986-0.538-2.2201-0.688-2.8752-0.395-1.7196-2.661-10.09-3.688-13.621-0.986-3.3847-1.523-2.3566-1.5-2.211 0.135 0.80978 0.898 3.0026 0.938 3.2937s0.393 1.6378 0.781 2.9844c1.042 3.6304 1.215 4.2764 1.781 6.5966 0.285 1.1646 0.726 2.8661 0.969 3.785 0.811 3.0663 1.833 9.59 2.157 13.648 0.087 1.0918 0.235 2.5931 0.312 3.3301 0.256 2.4294 0.297 2.8752 0.438 4.5493 0.077 0.90987 0.158 2.2019 0.187 2.8661 0.029 0.67331 0.119 2.0108 0.187 2.9844 0.069 0.97356 0.134 2.5021 0.157 3.412s0.087 2.1291 0.125 2.675 0.065 1.7924 0.062 2.7569c-8e-3 3.3028 0.096 9.1988 0.219 10.864 0.019 1.6924-0.194 12.383-0.5 13.075-0.101-0.0273-0.625-0.16378-0.625-0.16378l-1.375-0.31845c-0.882 0-3.006-0.64601-4.531-1.11-1.525-0.45494-3.384-0.99176-4.125-1.1919-0.303-0.0819-1.164-0.40944-1.844-0.62781-0.065-0.34575-0.187-2.675-0.25-5.4865-0.066-2.9662-0.144-1.6196-0.281-4.149-0.128-0.50953-0.352-3.6031-0.438-4.522-0.086-0.90986-0.457-3.4666-0.562-4.8314-0.202-2.6204-0.379-4.8314-0.594-6.8786-0.483-4.613-0.745-6.8877-0.969-8.3617-0.141-0.92807-0.343-2.4021-0.437-3.2664-0.094-0.87348-0.346-2.7023-0.563-4.0671-0.372-2.3475-0.716-4.5675-1.062-6.8877-0.142-0.94626-0.673-3.6304-1.531-7.6975-0.198-0.94626-0.586-2.4384-0.876-3.3574-0.289-0.91897-0.707-2.2383-0.906-2.9025-0.522-1.7378-3.4-10.181-4.687-13.73-1.237-3.412-1.721-2.302-1.688-2.1655 0.195 0.82798 1.157 3.0299 1.219 3.3301 0.062 0.29116 0.512 1.6196 1 2.9844 1.31 3.6577 1.543 4.3037 2.281 6.6511 0.371 1.1737 0.908 2.8843 1.219 3.8124 1.037 3.0936 2.562 9.7356 3.188 13.875 0.168 1.1191 0.431 2.6386 0.562 3.3847 0.437 2.4748 0.516 2.9298 0.781 4.6312 0.145 0.92806 0.328 2.2474 0.407 2.9298 0.078 0.6824 0.234 2.0472 0.374 3.039 0.141 1.0009 0.347 2.5658 0.438 3.503 0.091 0.92806 0.234 2.1382 0.312 2.7023 0.079 0.55502 0.181 1.847 0.25 2.8388 0.238 3.3847 0.816 9.4535 1.063 11.146 0.147 1.756 0.775 12.574 0.5 13.084-0.559-0.19108-1.013-0.31846-1.437-0.48224-0.877-0.35484-1.867-0.72789-2.188-0.80068-0.321-0.0728-1.255-0.51862-2.094-1.019s-1.913-1.0918-2.375-1.3102c-0.198-0.10009-1.222-0.81888-1.906-1.2829-0.098-0.60051-0.302-2.5567-0.5-5.2317-0.223-3.0208-0.228-1.6287-0.5-4.2036-0.154-0.51863-0.553-3.685-0.687-4.613-0.135-0.92806-0.636-3.4939-0.813-4.886-0.34-2.6659-0.645-4.9406-0.969-7.0242-0.726-4.6767-1.104-6.9787-1.406-8.4709-0.19-0.94627-0.485-2.4202-0.625-3.3028-0.14-0.88258-0.461-2.7387-0.75-4.1217-0.495-2.3657-0.969-4.6221-1.437-6.9605-0.192-0.96446-0.865-3.6486-1.938-7.7703-0.247-0.94626-0.724-2.4839-1.062-3.412-0.339-0.91896-0.798-2.2292-1.032-2.8934-0.613-1.747-3.963-10.254-5.437-13.821-1.416-3.4211-1.823-2.2474-1.781-2.1018 0.237 0.82798 1.297 3.0208 1.374 3.321 0.078 0.30026 0.598 1.6469 1.157 3.0208 1.501 3.6668 1.763 4.2946 2.625 6.6511 0.432 1.1828 1.077 2.9298 1.437 3.867 1.2 3.1026 3.063 9.7993 3.907 13.985 0.227 1.1373 0.579 2.6568 0.75 3.412 0.567 2.5112 0.644 2.9662 1 4.6949 0.194 0.94627 0.447 2.2929 0.562 2.9844 0.114 0.6915 0.369 2.0654 0.562 3.0754 0.194 1.0008 0.485 2.6022 0.626 3.5485 0.14 0.94627 0.329 2.1928 0.437 2.7569 0.108 0.57321 0.284 1.8652 0.406 2.8752 0.417 3.4393 1.32 9.5991 1.657 11.319 0.223 1.656 1.184 10.709 1.124 12.42-1.942-1.3921-4.031-3.0208-4.937-4.1763-0.887-1.1282-2.148-5.168-2.625-10.773-0.074-0.88257-0.254-2.1655-0.375-2.8752-0.198-1.1555-0.395-3.0845-1.156-11.091-0.255-2.675-0.216-2.3839-1.157-6.8513-0.609-2.8934-2.246-9.3808-2.812-11.119-0.114-0.34575-0.471-1.5923-0.812-2.7569-1.009-3.4484-2.212-6.5874-3.719-9.7538-0.785-1.6469-1.835-4.0671-2.938-6.8786-0.664-1.6924-1.332-3.3756-1.5-3.7214-0.167-0.35485-0.585-1.4012-0.937-2.3384-0.906-2.393-3.0039-6.542-4.1252-8.1615-1.2464-1.7924-2.183-3.4575-2.5-4.2036-0.2789-0.80978 1.3284-0.72789 2.5-0.80068z" fill="#b89c6e"/>
  <g transform="translate(220)">
   <path d="m163.78 158.72c0.744-0.69 1.72-0.93 2.178-0.55 0.459 0.38 0.227 1.24-0.517 1.92s-1.719 0.93-2.178 0.55c-0.456-0.38-0.229-1.24 0.51-1.92" fill="#b96408"/>
   <path d="m163.2 160.68c0.471 0.39 1.48 0.14 2.258-0.57 0.777-0.72 1.014-1.61 0.543-2-0.469-0.39-1.475-0.14-2.252 0.57-2e-3 0-5e-3 0-7e-3 0.01h-8e-3c-0.772 0.72-1.003 1.6-0.534 1.99zm0.106-0.1c-0.444-0.37-0.221-1.19 0.483-1.84h1e-3c1e-3 0 2e-3 -0.01 3e-3 -0.01h8e-3c0.71-0.65 1.65-0.89 2.095-0.52 0.446 0.37 0.217 1.2-0.493 1.85s-1.651 0.89-2.097 0.52z" fill="#6c4a19"/>
   <path d="m172.39 142.56c0.743-0.68 1.719-0.93 2.177-0.55 0.459 0.38 0.227 1.24-0.517 1.93-0.744 0.68-1.719 0.92-2.178 0.54-0.456-0.37-0.228-1.23 0.51-1.91" fill="#b96408"/>
   <path d="m171.81 144.52c0.47 0.39 1.479 0.14 2.257-0.57 0.777-0.71 1.014-1.6 0.544-1.99s-1.476-0.14-2.253 0.57h-0.01c-2e-3 0.01-3e-3 0.01-5e-3 0.01-0.772 0.71-1.003 1.6-0.533 1.98zm0.105-0.09c-0.444-0.37-0.221-1.2 0.483-1.85h4e-3c3e-3 0 6e-3 -0.01 8e-3 -0.01 0.71-0.65 1.65-0.88 2.095-0.52 0.446 0.37 0.217 1.21-0.493 1.86s-1.651 0.89-2.097 0.52z" fill="#6c4a19"/>
   <path d="m188.93 137.35c0.649-0.77 1.584-1.14 2.088-0.82 0.504 0.31 0.386 1.2-0.262 1.97-0.649 0.77-1.584 1.14-2.088 0.83-0.502-0.32-0.388-1.2 0.256-1.97" fill="#b96408"/>
   <path d="m188.61 139.38c0.517 0.32 1.485-0.06 2.163-0.87s0.797-1.72 0.279-2.05c-0.516-0.32-1.481 0.06-2.159 0.86-2e-3 0-4e-3 0.01-6e-3 0.01h-3e-3c-1e-3 0-3e-3 0-4e-3 0.01-0.673 0.8-0.786 1.71-0.27 2.04zm0.092-0.11c-0.488-0.31-0.375-1.16 0.238-1.9h4e-3c3e-3 0 5e-3 -0.01 7e-3 -0.01 0.619-0.73 1.52-1.09 2.009-0.79 0.491 0.31 0.372 1.17-0.247 1.9-0.619 0.74-1.521 1.1-2.011 0.8z" fill="#6c4a19"/>
   <path d="m202.32 145.29c0.451-0.9 1.275-1.48 1.838-1.29 0.564 0.2 0.655 1.08 0.203 1.99-0.451 0.9-1.275 1.47-1.838 1.28-0.562-0.19-0.655-1.07-0.208-1.97" fill="#b96408"/>
   <path d="m202.48 147.33c0.578 0.2 1.431-0.4 1.903-1.34s0.375-1.86-0.203-2.06c-0.578-0.19-1.429 0.4-1.901 1.34h-5e-3c-1e-3 0.01-2e-3 0.01-2e-3 0.01h-3e-3c-0.467 0.95-0.366 1.85 0.211 2.05zm0.064-0.13c-0.547-0.18-0.633-1.03-0.208-1.89h1e-3c1e-3 -0.01 1e-3 -0.01 2e-3 -0.01 2e-3 0 3e-3 -0.01 5e-3 -0.01 0.431-0.86 1.224-1.42 1.772-1.23s0.631 1.05 0.2 1.91-1.224 1.42-1.772 1.23z" fill="#6c4a19"/>
   <path d="m158.51 132.3c0.743-0.68 1.719-0.93 2.177-0.55 0.459 0.38 0.227 1.24-0.517 1.93-0.744 0.68-1.719 0.92-2.178 0.54-0.456-0.37-0.228-1.23 0.51-1.91" fill="#b96408"/>
   <path d="m157.93 134.26c0.471 0.39 1.48 0.14 2.258-0.57 0.777-0.71 1.014-1.6 0.544-1.99s-1.476-0.14-2.253 0.57h-0.01c-2e-3 0-3e-3 0.01-5e-3 0.01-0.772 0.71-1.003 1.6-0.534 1.98zm0.106-0.09c-0.444-0.37-0.221-1.2 0.483-1.85h4e-3c3e-3 0 6e-3 -0.01 8e-3 -0.01 0.71-0.65 1.65-0.88 2.095-0.52 0.446 0.37 0.217 1.21-0.493 1.86s-1.651 0.89-2.097 0.52z" fill="#6c4a19"/>
   <path d="m182.81 151.21c0.701-0.73 1.66-1.03 2.141-0.68 0.48 0.35 0.301 1.22-0.401 1.95-0.701 0.72-1.66 1.03-2.141 0.68-0.478-0.35-0.302-1.22 0.394-1.95" fill="#b96408"/>
   <path d="m182.35 153.2c0.493 0.36 1.485 0.05 2.218-0.71s0.916-1.66 0.423-2.02c-0.492-0.36-1.482-0.05-2.214 0.7-2e-3 0-5e-3 0-7e-3 0.01h-8e-3c-0.728 0.76-0.904 1.66-0.412 2.02zm0.099-0.1c-0.465-0.34-0.293-1.18 0.371-1.87 0 0 1e-3 0 1e-3 -0.01h3e-3c3e-3 0 5e-3 0 8e-3 -0.01 0.668-0.68 1.593-0.98 2.059-0.64 0.468 0.34 0.289 1.19-0.38 1.88s-1.595 0.99-2.062 0.65z" fill="#6c4a19"/>
   <path d="m127.3 144.32c0.5598-0.84 1.4488-1.31 1.9843-1.05 0.5356 0.26 0.516 1.15-0.0438 1.99-0.5597 0.84-1.4487 1.31-1.9843 1.05-0.5337-0.26-0.5166-1.14 0.0384-1.98" fill="#b96408"/>
   <path d="m127.2 146.36c0.5501 0.27 1.4701-0.21 2.0554-1.09s0.6026-1.8 0.0526-2.07c-0.5485-0.26-1.4663 0.22-2.0518 1.09-2e-3 0-4e-3 0.01-6e-3 0.01h-2e-3c-1e-3 0-2e-3 0.01-3e-3 0.01-0.5803 0.87-0.5927 1.79-0.0446 2.05zm0.0794-0.12c-0.519-0.25-0.4996-1.1 0.0289-1.9h1e-3c8e-4 0 2e-3 -0.01 2e-3 -0.01 2e-3 0 4e-3 0 6e-3 -0.01 0.5345-0.79 1.3908-1.25 1.9108-1 0.5211 0.25 0.4972 1.12-0.037 1.92s-1.391 1.26-1.9122 1z" fill="#6c4a19"/>
   <path d="m156.61 147.05c0.744-0.68 1.719-0.92 2.178-0.55 0.458 0.38 0.226 1.25-0.518 1.93-0.743 0.68-1.719 0.92-2.177 0.54-0.457-0.37-0.229-1.23 0.51-1.91" fill="#b96408"/>
   <path d="m156.02 149.02c0.47 0.38 1.479 0.13 2.257-0.58s1.015-1.6 0.544-1.99c-0.469-0.39-1.476-0.14-2.253 0.57h-0.01c-1e-3 0.01-3e-3 0.01-5e-3 0.01-0.772 0.71-1.002 1.6-0.533 1.99zm0.105-0.1c-0.444-0.37-0.221-1.2 0.483-1.85h5e-3c2e-3 0 5e-3 -0.01 8e-3 -0.01 0.709-0.64 1.649-0.88 2.094-0.52 0.446 0.37 0.217 1.21-0.493 1.86-0.709 0.65-1.651 0.89-2.097 0.52z" fill="#6c4a19"/>
   <path d="m142.41 142.12c0.744-0.68 1.72-0.92 2.178-0.54s0.227 1.24-0.517 1.92-1.72 0.93-2.178 0.55c-0.457-0.38-0.229-1.24 0.51-1.92" fill="#b96408"/>
   <path d="m141.83 144.09c0.471 0.39 1.48 0.14 2.257-0.58 0.778-0.71 1.015-1.6 0.544-1.99-0.469-0.39-1.475-0.14-2.252 0.57h-7e-3c-1e-3 0-2e-3 0.01-3e-3 0.01h-5e-3c-0.773 0.71-1.003 1.6-0.534 1.99zm0.106-0.1c-0.444-0.37-0.222-1.19 0.482-1.84 1e-3 0 1e-3 -0.01 2e-3 -0.01h3e-3c3e-3 0 5e-3 0 8e-3 -0.01 0.709-0.64 1.65-0.88 2.095-0.51 0.446 0.37 0.217 1.2-0.493 1.85s-1.651 0.89-2.097 0.52z" fill="#6c4a19"/>
   <path d="m188.48 161.76c0.64-0.78 1.57-1.16 2.078-0.85s0.401 1.2-0.238 1.98-1.57 1.16-2.078 0.85c-0.506-0.31-0.402-1.19 0.232-1.97" fill="#b96408"/>
   <path d="m188.18 163.79c0.521 0.31 1.484-0.08 2.152-0.89 0.669-0.82 0.776-1.74 0.255-2.05-0.52-0.32-1.481 0.07-2.149 0.88-2e-3 0-4e-3 0-6e-3 0.01h-7e-3c-0.663 0.82-0.765 1.73-0.245 2.05zm0.09-0.12c-0.491-0.3-0.388-1.15 0.216-1.89h4e-3c2e-3 -0.01 4e-3 -0.01 7e-3 -0.01 0.609-0.74 1.506-1.12 1.999-0.81 0.494 0.3 0.386 1.15-0.224 1.9-0.61 0.74-1.508 1.12-2.002 0.81z" fill="#6c4a19"/>
   <path d="m262.53 161.45c-0.52-0.87-1.39-1.38-1.94-1.14-0.54 0.23-0.56 1.12-0.04 1.99 0.52 0.86 1.39 1.37 1.94 1.14 0.54-0.24 0.56-1.12 0.05-1.98" fill="#b96408"/>
   <path d="m262.51 163.49c-0.56 0.24-1.46-0.28-2.01-1.19-0.54-0.9-0.52-1.82 0.04-2.06s1.46 0.28 2 1.18h0.01v0.01h0.01c0.54 0.91 0.51 1.82-0.05 2.06zm-0.08-0.12c0.53-0.23 0.55-1.09 0.06-1.91l-0.01-0.01c-0.5-0.82-1.33-1.32-1.86-1.09s-0.55 1.09-0.05 1.92c0.5 0.82 1.33 1.32 1.86 1.09z" fill="#6c4a19"/>
   <path d="m255.81 147.73c-0.51-0.88-1.36-1.41-1.91-1.18-0.55 0.22-0.6 1.11-0.09 1.98 0.5 0.88 1.35 1.41 1.9 1.19s0.6-1.11 0.1-1.98" fill="#b96408"/>
   <path d="m255.74 149.77c-0.57 0.23-1.46-0.31-1.98-1.23s-0.48-1.84 0.09-2.06c0.56-0.23 1.45 0.31 1.97 1.22 0 0 0 0.01 0.01 0.01v0.01c0.52 0.91 0.47 1.83-0.09 2.05zm-0.08-0.12c0.54-0.22 0.58-1.07 0.11-1.91h-0.01v-0.01c-0.48-0.83-1.31-1.35-1.84-1.13-0.54 0.22-0.57 1.08-0.09 1.91 0.47 0.84 1.3 1.35 1.83 1.14z" fill="#6c4a19"/>
   <path d="m236.27 139.57c-0.4-0.92-1.19-1.55-1.76-1.39s-0.72 1.04-0.32 1.97c0.4 0.92 1.19 1.55 1.77 1.39 0.57-0.16 0.71-1.03 0.32-1.96" fill="#b96408"/>
   <path d="m235.97 141.6c-0.59 0.16-1.41-0.48-1.82-1.45-0.42-0.97-0.27-1.88 0.32-2.04 0.58-0.16 1.4 0.47 1.82 1.44v0.01h0.01v0.01c0.41 0.96 0.26 1.86-0.33 2.03zm-0.06-0.13c0.56-0.16 0.7-1 0.32-1.89l-0.01-0.01c-0.38-0.88-1.14-1.49-1.7-1.33-0.55 0.15-0.69 1.01-0.3 1.89 0.38 0.88 1.14 1.49 1.69 1.34z" fill="#6c4a19"/>
   <path d="m224.41 146.88c-0.28-0.97-0.99-1.69-1.58-1.6s-0.83 0.94-0.55 1.91 0.99 1.69 1.58 1.6c0.58-0.09 0.83-0.94 0.55-1.9" fill="#b96408"/>
   <path d="m223.86 148.85c-0.6 0.09-1.33-0.65-1.63-1.66s-0.04-1.9 0.57-1.99c0.6-0.09 1.33 0.65 1.63 1.66v0.01s0.01 0 0.01 0.01c0.29 1 0.03 1.88-0.58 1.97zm-0.04-0.14c0.57-0.08 0.81-0.9 0.55-1.82v-0.01h-0.01v-0.01c-0.27-0.92-0.95-1.61-1.52-1.53-0.57 0.09-0.81 0.92-0.54 1.84s0.95 1.62 1.52 1.53z" fill="#6c4a19"/>
   <path d="m274.78 138.54c-0.5-0.87-1.35-1.4-1.9-1.18-0.56 0.22-0.6 1.11-0.1 1.99 0.51 0.87 1.36 1.4 1.91 1.18s0.6-1.11 0.1-1.98" fill="#b96408"/>
   <path d="m274.71 140.58c-0.56 0.23-1.45-0.31-1.97-1.23-0.53-0.91-0.48-1.83 0.09-2.06 0.56-0.23 1.44 0.31 1.97 1.22v0.01h0.01v0.01c0.52 0.91 0.47 1.83-0.1 2.05zm-0.07-0.12c0.54-0.21 0.58-1.07 0.1-1.9v-0.02c-0.48-0.83-1.31-1.34-1.84-1.13-0.54 0.22-0.57 1.08-0.1 1.92 0.48 0.83 1.31 1.35 1.84 1.13z" fill="#6c4a19"/>
   <path d="m243.48 153.92c-0.49-0.88-1.34-1.42-1.89-1.21-0.56 0.21-0.61 1.1-0.13 1.99 0.49 0.88 1.34 1.42 1.89 1.21 0.56-0.21 0.61-1.1 0.13-1.98" fill="#b96408"/>
   <path d="m243.38 155.97c-0.58 0.21-1.45-0.34-1.96-1.27-0.51-0.92-0.45-1.84 0.12-2.06s1.44 0.34 1.95 1.26h0.01v0.01c0.51 0.92 0.44 1.84-0.12 2.06zm-0.07-0.13c0.53-0.21 0.59-1.06 0.13-1.9h-0.01v-0.02c-0.47-0.84-1.28-1.36-1.82-1.16-0.54 0.21-0.59 1.07-0.13 1.92 0.47 0.84 1.29 1.37 1.83 1.16z" fill="#6c4a19"/>
   <path d="m297.94 146.68c-0.49-0.88-1.34-1.42-1.9-1.21-0.55 0.22-0.6 1.11-0.11 1.99s1.34 1.42 1.89 1.21c0.56-0.22 0.61-1.1 0.12-1.98" fill="#b96408"/>
   <path d="m297.84 148.72c-0.57 0.22-1.44-0.33-1.96-1.25-0.51-0.93-0.45-1.85 0.11-2.07 0.57-0.22 1.45 0.34 1.96 1.25l0.01 0.01v0.01c0.51 0.92 0.45 1.83-0.12 2.05zm-0.07-0.12c0.54-0.21 0.59-1.07 0.13-1.91h-0.01v-0.01c-0.47-0.84-1.29-1.36-1.83-1.15s-0.58 1.07-0.11 1.91 1.28 1.37 1.82 1.16z" fill="#6c4a19"/>
   <path d="m280.93 150.98c-0.55-0.84-1.44-1.31-1.98-1.05-0.54 0.25-0.52 1.15 0.04 1.99s1.45 1.31 1.98 1.05c0.54-0.25 0.52-1.14-0.03-1.98" fill="#b96408"/>
   <path d="m281 153.02c-0.55 0.27-1.47-0.22-2.06-1.1-0.58-0.87-0.59-1.8-0.04-2.06 0.55-0.27 1.46 0.22 2.05 1.09v0.01c0.01 0 0.01 0.01 0.01 0.01 0.58 0.88 0.59 1.79 0.04 2.05zm-0.08-0.11c0.52-0.25 0.5-1.11-0.03-1.91v-0.01l-0.01-0.01c-0.53-0.79-1.38-1.25-1.9-1-0.53 0.25-0.5 1.11 0.03 1.91 0.53 0.81 1.39 1.27 1.91 1.02z" fill="#6c4a19"/>
   <path d="m235.37 164.49c-0.41-0.92-1.22-1.53-1.79-1.36s-0.69 1.05-0.27 1.97c0.41 0.92 1.21 1.53 1.79 1.36 0.56-0.17 0.69-1.05 0.28-1.97" fill="#b96408"/>
   <path d="m235.11 166.51c-0.59 0.18-1.42-0.45-1.85-1.41-0.44-0.96-0.31-1.87 0.28-2.05 0.58-0.17 1.41 0.45 1.85 1.41v0.01h0.01v0.01c0.43 0.96 0.29 1.86-0.29 2.03zm-0.06-0.13c0.55-0.16 0.67-1.01 0.28-1.88v-0.01s-0.01 0-0.01-0.01c-0.4-0.87-1.17-1.46-1.72-1.3-0.56 0.17-0.67 1.03-0.27 1.9 0.39 0.88 1.17 1.47 1.72 1.3z" fill="#6c4a19"/>
   <path d="m214.18 160.54c0.15-1-0.192-1.95-0.762-2.12-0.571-0.16-1.156 0.51-1.306 1.51-0.149 1 0.192 1.94 0.763 2.11 0.569 0.17 1.151-0.5 1.304-1.49" fill="#b96408"/>
   <path d="m212.85 162.1c-0.586-0.17-0.942-1.15-0.785-2.19 0.156-1.04 0.763-1.74 1.349-1.56 0.585 0.17 0.941 1.14 0.787 2.18v0.01h-1e-3c0 0.01 0 0.01-1e-3 0.01-0.159 1.04-0.765 1.72-1.349 1.55zm0.021-0.14c0.554 0.16 1.114-0.48 1.26-1.43h1e-3v-0.01c1e-3 0 1e-3 0 2e-3 -0.01 0.141-0.95-0.187-1.86-0.741-2.02-0.555-0.17-1.118 0.49-1.261 1.44s0.184 1.87 0.739 2.03z" fill="#6c4a19"/>
  </g>
  <g transform="matrix(1.1063 0 0 1.1063 195.11 -8.9737)">
   <path d="m214.97 84.459c-5.924-0.034-11.887 0.202-14.629 0.719-0.619 0.117-9.965 1.687-11.898 2.031-5.198 0.927-8.655 1.806-14.661 3.813-9.083 3.034-14.327 5.609-20.499 10.028-2.612 1.87-9.253 8.21-11.239 10.72-0.759 0.96-4.196 5.44-4.615 6s-1.454 1.95-2.292 3.06c-2.27 3.04-3.313 6.54-3.746 8.4-0.323 2.62-0.582 3.53-0.712 6.73 0.015 2.14 1.077 3.49 3.297 4.22 1.052 0.34 2.648-0.07 4.332-1.16 0.644-0.41 2.308-1.41 3.704-2.22 2.428-1.4 3.793-2.43 5.871-4.34 0.521-0.48 1.521-1.25 2.197-1.72 0.954-0.66 1.976-1.6 3.265-2.56 4.79-3.58 11.545-5.65 13.813-4.25 1.238 0.76 1.259 1.01 0.503 3.34-1.314 4.06-0.954 6.87 0.726 8.38 1.585 0.99 4.187 0.38 5.333 0 1.681-0.56 2.882-1.15 9.983-5.03 1.395-0.77 3.495-1.72 4.677-2.1 1.856-0.6 6.04-1.55 9.795 0.1 4.116 1.71 4.618 2.17 7.158 6.81 1.092 1.99 3.107 4.08 5.18 5.9 1.917 1.7 4.565 1.9 7.66 0.6 2.008-0.84 3.188-1.66 4.708-3.31 3.85-5.22 11.67-7.3 13.75-6.64 2.87 0.42 5.03 1.32 10.49 5.04 0.59 0.34 4.12 3.12 5.02 3.69s6.25 4.01 7 4.41c2.18 1.14 5.35 0.34 6.62-0.85 1.38-2.02 1.49-1.63 1.73-5.53 0.33-5.28 0.39-5.51 0.97-6.12 2.22-1.87 5.06-0.2 5.65 0.02 2.51 1.07 10.88 5.87 11.78 6.51s5.12 2.53 5.96 2.75c1.64 0.41 3.14 0.41 3.93 0 1.47-0.95 2.05-2.18 2.16-2.57 0.18-0.48 0.58-1.96 0.72-3.18 0.46-3.93 0-8.3-1.09-10.44-0.18-0.35-3.05-6.12-4.53-7.84-0.6-0.72-4.73-5.62-6.56-6.97-0.96-0.71-2.93-2.44-4.36-3.82-1.43-1.37-3.07-2.85-3.67-3.28-0.6-0.42-2.28-1.62-3.74-2.65-3.61-2.564-4.36-3.003-5.71-3.597-0.65-0.283-2.44-1.129-3.99-1.875-5.63-2.714-9.25-4.291-11.33-4.875-0.58-0.163-1.59-0.477-2.23-0.719-1.72-0.646-7.08-2.013-8.57-2.187-0.71-0.083-12.73-2.382-13.56-2.563-2.54-0.547-8.43-0.84-14.351-0.875z" fill="#ededff"/>
   <path d="m162.34 102.16c-10.418 1.45-16.013 11.39-22.226 18.7-1.915 3.1-6.876 12.14-1.248 12.62 8.941-5.26 16.346-14.93 27.556-15.04 8.823-2.2 3.523 14.03 10.948 10.64 7.294-5.45 18.008-9.25 26.306-3.71 4.818 3.26 6.851 10.45 13.103 11.41 5.858-0.77 8.098-8.05 14.168-8.88 7.34-2.33 15.61 0.27 20.76 5.88 3.35 2.9 10.97 8.1 13.35 1.65-0.69-5.09 3.73-10.29 9.06-8.45 6.24 1.34 10.92 6.07 16.61 8.52 7.37 2.41 6.11-8.42 0.33-9.41-7.52-5.21-15.19-10.72-24.05-13.35-10.56-1.96-18.84 6.77-28.74 8.5-10.49-0.52-19.517-10.21-30.352-6.71-8.824 3.59-20.606 5.27-28.036-2.07-4.219-5.28-10.083-11.41-17.539-10.3z" fill="#e1e1ff"/>
  </g>
  <path d="m459.95 90.589c0 9.4741-10.648 17.17-23.761 17.17s-23.761-7.6957-23.761-17.17c0-9.4741 10.648-17.17 23.761-17.17 13.073 0 23.691 7.631 23.761 17.073" opacity=".1"/>
  <path d="m463.12 77.273c0 14.496-12.164 26.261-27.152 26.261s-27.152-11.765-27.152-26.261 12.164-26.261 27.152-26.261 27.152 11.765 27.152 26.261z" fill="#c31b28"/>
  <path d="m435.95 53.025c-4.4372-0.0911-9.2196 0.7779-12.563 3.7575-2.8896 3.4048-0.2412 9.4049 4.4323 9.5672 4.7347 0.39946 9.2808-1.3456 13.971-1.6306 4.0882-0.39479 8.3895 0.53962 11.585 3.0766 3.967 3.0018 6.0485 7.821 6.0974 12.585 0.0735 1.7812-0.0489 3.5671-0.30609 5.3332 1.4448-1.8034 1.408-4.1978 1.8121-6.3342 0.42853-5.0587-0.85707-10.276-3.8078-14.518-2.7671-2.8231-7.3096-3.9222-11.13-2.5837-4.8767 1.1061-10.133 1.5511-14.994 0.14951-1.5329-0.53262-3.547-1.5044-3.3083-3.3569 0.18121-1.7836 2.0557-2.9936 3.8495-2.8932 6.6888-1.1692 14.008-0.66343 19.889 2.8301 2.0447 0.16235-1.4815-1.8513-2.1794-2.3524-3.9486-2.4283-8.6588-3.6804-13.348-3.6302z" fill="#ebb4b5" opacity=".43902"/>
  <path d="m456.92 72.387c3.2567 5.3209 2.112 10.938-2.5588 12.537-4.6658 1.5973-11.099-1.4256-14.355-6.7466-3.2591-5.3249-2.1144-10.942 2.5514-12.539 4.6708-1.599 11.104 1.4239 14.363 6.7488z" fill="url(#a)"/>
  <path d="m415.12 65.489c-2.7598 3.9537-4.2437 8.4915-3.9119 13.095 0.23019 10.811 10.253 20.781 22.977 23.288-12.491-5.4652-20.911-15.574-20.911-27.17 0-3.205 0.65382-6.2979 1.8464-9.2121z" fill="#5b050b" opacity=".65157"/>
  <path d="m443.32 59.306c0 1.1664-2.3981 2.1131-5.35 2.1131-2.9576 0-5.3557-0.94665-5.3557-2.1131s2.3981-2.1131 5.3557-2.1131c2.9519 0 5.35 0.94665 5.35 2.1131z" fill-rule="evenodd" opacity=".30314"/>
 </g>
</svg>
