<?xml version="1.0" encoding="UTF-8"?>
<svg width="210mm" height="297mm" version="1.1" viewBox="0 0 744.09448819 1052.3622047" xmlns="http://www.w3.org/2000/svg">
 <path d="m-1381.2-127.61 21.379 166.63h248.42l21.379-166.63z" fill="#fc0" stroke-width="1.1443"/>
 <path d="m-1086.3-205.32s-1.8749-1.043-4.7406-2.3254c-1.4329-0.64125-3.1139-1.3428-4.931-2.0032-1.8172-0.66039-3.7697-1.2793-5.7496-1.7578-1.9799-0.47852-3.9858-0.81622-5.907-0.91187-0.9606-0.0478-1.9007-0.0361-2.8052 0.0494-0.9044 0.0856-1.774 0.24479-2.5945 0.48889-0.8206 0.2441-1.5927 0.57383-2.3017 1.0016-0.709 0.42775-1.3546 0.95282-1.9244 1.5894s-1.0639 1.3836-1.4667 2.254-0.7146 1.8643-0.9229 2.9938c-0.2178 1.1818-0.556 2.0765-1.0052 2.7228s-1.0095 1.0457-1.6681 1.2341c-0.6585 0.18845-1.4154 0.16612-2.2613-0.0256-0.8459-0.19176-1.781-0.55308-2.7924-1.0474-2.0228-0.98858-4.3536-2.5061-6.9067-4.2389s-5.3281-3.6812-8.2361-5.5371-5.9489-3.6191-9.0362-4.9768c-1.5438-0.67885-3.0989-1.2559-4.6546-1.6937s-3.1125-0.73597-4.6582-0.85511c-1.5457-0.11913-3.0804-0.0593-4.5942 0.21789-1.5138 0.2772-3.0059 0.77227-4.4659 1.5234-1.4599 0.75119-2.8876 1.7587-4.2718 3.0615-1.3843 1.3028-2.7253 2.9-4.0119 4.8322-1.2865 1.9321-2.5449 3.5056-3.7774 4.7644-1.2326 1.2588-2.4405 2.2042-3.6273 2.8766-1.1869 0.67234-2.3517 1.0724-3.501 1.2451-1.1494 0.17275-2.282 0.1173-3.4021-0.12268-1.1202-0.23998-2.2279-0.66461-3.327-1.2305-1.0992-0.56586-2.1911-1.2734-3.2777-2.0782-2.1729-1.6098-4.3284-3.6096-6.5002-5.6543-2.1717-2.0447-4.359-4.1332-6.5955-5.918-1.1182-0.89239-2.2497-1.7089-3.3966-2.406-1.1468-0.69713-2.31-1.2751-3.4936-1.6901-1.1837-0.41499-2.3876-0.66809-3.6163-0.7141-1.2288-0.046-2.4808 0.11386-3.7628 0.52368-1.2822 0.40982-2.5931 1.0708-3.9368 2.0233-1.3437 0.95251-2.721 2.1972-4.1345 3.7793-1.4136 1.5821-2.8215 2.9971-4.2224 4.2572-1.401 1.2601-2.7943 2.3654-4.1767 3.327-1.3824 0.96159-2.7547 1.78-4.1126 2.4664-1.3578 0.68646-2.7029 1.2407-4.0301 1.6754-1.3272 0.43475-2.637 0.74935-3.9276 0.95581-1.2906 0.20644-2.5607 0.30421-3.8086 0.30578-1.2478 2e-3 -2.4739-0.0929-3.6731-0.27283-1.1992-0.1799-2.3712-0.4439-3.5156-0.78185-2.2889-0.67592-4.4629-1.6449-6.4966-2.8125-2.0337-1.1677-3.9276-2.5343-5.6579-4.0064-1.7305-1.4721-3.2977-3.0488-4.6766-4.6381-1.3788-1.5892-2.5695-3.1904-3.5486-4.7095-0.5148-0.79876-1.0369-1.4333-1.5674-1.9244-0.5303-0.49113-1.0678-0.8394-1.6167-1.0675-0.5491-0.2281-1.1086-0.33642-1.6791-0.34607-0.5705-0.01-1.1536 0.0793-1.7487 0.24354-1.1901 0.32843-2.4326 0.95928-3.739 1.7157s-2.6752 1.6387-4.1217 2.4664c-1.4465 0.82775-2.9707 1.6018-4.5813 2.1442-0.8053 0.2712-1.632 0.48408-2.4829 0.61707s-1.7245 0.1853-2.6239 0.1355-1.825-0.20073-2.7759-0.47791c-0.9509-0.27717-1.928-0.6795-2.9333-1.2286-1.0054-0.54912-2.0389-1.2455-3.1019-2.1112-1.0629-0.86567-2.1541-1.9006-3.2775-3.1274-0.6991-0.76333-1.3874-1.404-2.0636-1.9336-0.6764-0.52953-1.3422-0.94828-1.9978-1.2671-0.6556-0.31881-1.3003-0.53717-1.9371-0.66834-0.637-0.13117-1.266-0.17438-1.886-0.14099-1.2403 0.0668-2.4477 0.43894-3.6329 1.0254s-2.3477 1.3857-3.4936 2.3071c-2.292 1.8429-4.5207 4.1712-6.7511 6.2457-1.1152 1.0373-2.2309 2.0126-3.3546 2.8308-1.1235 0.81814-2.256 1.479-3.4038 1.8933-2.2959 0.82863-5.5522 1.5508-9.1462 2.1661-3.594 0.61536-7.5254 1.1246-11.169 1.5308-7.2882 0.81231-13.429 1.2103-13.429 1.2103a162.89 166.68 0 0 0 -13.647 66.29 162.89 166.68 0 0 0 0.1318 3.7884h325.46a162.89 166.68 0 0 0 0.1849 -3.7884 162.89 166.68 0 0 0 -13.511 -66.29z" fill="#7c5437" stroke-width="1.1245"/>
 <path d="m-1113.1-248.6c0.5517 0.6464 1.1496 1.2449 1.6919 1.9006 0.9505 1.1491 1.8125 2.3822 2.7338 3.5596a162.89 166.68 0 0 0 -4.4257 -5.4602z" fill="#784421" stroke-width="1.1245"/>
 <path d="m-1367.8-236.15a162.89 166.68 0 0 0 -17.1 30.806c1.6093-3.7974 3.3455-7.5122 5.2039-11.138 1.8617-3.6327 3.8449-7.1773 5.9436-10.629 1.8826-3.0968 3.8892-6.0933 5.9527-9.0381z" fill="#784421" stroke-width="1.1245"/>
 <path d="m-1344.2-263.03a162.89 166.68 0 0 0 -14.632 15.298c2.2551-2.6806 4.5571-5.3138 6.9654-7.8332 2.4709-2.5848 5.0438-5.0564 7.6666-7.4652z" fill="#784421" stroke-width="1.1245"/>
 <path d="m-1308.4-287.97a162.89 166.68 0 0 0 -14.026 8.0823c2.4509-1.5841 4.901-3.1708 7.4322-4.6197 2.1546-1.2334 4.3845-2.3295 6.5936-3.4625z" fill="#784421" stroke-width="1.1245"/>
 <path d="m-1282.5-298.59a162.89 166.68 0 0 0 -5.6909 1.9849c1.8435-0.64702 3.6605-1.3609 5.5297-1.9409 0.053-0.0164 0.1081-0.0275 0.1612-0.044z" fill="#784421" stroke-width="1.1245"/>
 <path d="m-1235.6-305.73a162.89 166.68 0 0 0 -14.366 0.73609c-1.6651 0.15279-3.3158 0.36697-4.9694 0.57129a162.89 166.68 0 0 0 -9.5471 1.4777c-1.781 0.33085-3.5702 0.63151-5.3339 1.0217a162.89 166.68 0 0 0 -12.667 3.3106c-0.053 0.0164-0.1081 0.0275-0.1612 0.044-1.8692 0.58002-3.6863 1.2939-5.5298 1.9409a162.89 166.68 0 0 0 -7.5768 2.829c-2.2784 0.93117-4.533 1.9126-6.764 2.9462a162.89 166.68 0 0 0 -5.7898 2.8638c-2.2091 1.133-4.439 2.2292-6.5936 3.4625-2.5312 1.449-4.9813 3.0356-7.4322 4.6197a162.89 166.68 0 0 0 -2.6807 1.6827c-2.5398 1.7125-4.9984 3.5477-7.4414 5.4034a162.89 166.68 0 0 0 -3.4571 2.6898c-2.4867 1.9963-4.9498 4.0249-7.3223 6.1688a162.89 166.68 0 0 0 -0.9595 0.91369c-2.6228 2.4088-5.1958 4.8804-7.6666 7.4652-2.4083 2.5194-4.7103 5.1527-6.9654 7.8332a162.89 166.68 0 0 0 -1.2103 1.4099c-2.2692 2.76-4.4487 5.6072-6.5479 8.5272a162.89 166.68 0 0 0 -1.148 1.6425c-2.0636 2.9448-4.0701 5.9412-5.9528 9.0381-2.0986 3.452-4.0819 6.9966-5.9436 10.629-1.8583 3.6261-3.5945 7.3409-5.2038 11.138a162.89 166.68 0 0 0 -0.01 0.0201s6.1408-0.39802 13.429-1.2103c3.6441-0.40615 7.5755-0.9154 11.169-1.5308 3.5941-0.61535 6.8503-1.3375 9.1462-2.1661 1.1479-0.41431 2.2803-1.0752 3.4039-1.8933 1.1236-0.81816 2.2393-1.7935 3.3545-2.8308 2.2304-2.0746 4.4592-4.4029 6.7511-6.2457 1.146-0.92143 2.3085-1.7207 3.4937-2.3071 1.1851-0.58645 2.3925-0.95862 3.6327-1.0254 0.6202-0.0334 1.2492 0.01 1.886 0.141 0.6369 0.13116 1.2817 0.34952 1.9373 0.66833 0.6556 0.3188 1.3214 0.73756 1.9976 1.2671 0.6764 0.52954 1.3647 1.1703 2.0637 1.9336 1.1234 1.2268 2.2147 2.2618 3.2776 3.1274 1.0628 0.86566 2.0964 1.5621 3.1018 2.1112 1.0054 0.54914 1.9824 0.95148 2.9333 1.2286s1.8765 0.4281 2.7759 0.47791c0.8994 0.0498 1.7731-2e-3 2.6239-0.1355 0.8509-0.133 1.6776-0.34587 2.4829-0.61708 1.6107-0.54239 3.1347-1.3164 4.5813-2.1442 1.4465-0.82774 2.8154-1.71 4.1217-2.4664 1.3064-0.75641 2.5488-1.3872 3.739-1.7157 0.5951-0.16423 1.1781-0.25318 1.7487-0.24354 0.5705 0.01 1.1301 0.11797 1.679 0.34607 0.5491 0.2281 1.0865 0.57637 1.6169 1.0675s1.0526 1.1257 1.5674 1.9244c0.979 1.519 2.1698 3.1203 3.5486 4.7095s2.9461 3.166 4.6765 4.6381 3.6242 2.8387 5.658 4.0064c2.0337 1.1676 4.2076 2.1366 6.4965 2.8125 1.1444 0.33795 2.3165 0.60196 3.5156 0.78185 1.1992 0.17991 2.4252 0.2744 3.6731 0.27283 1.2479-2e-3 2.5181-0.0993 3.8086-0.30578 1.2906-0.20646 2.6004-0.52106 3.9276-0.95581 1.3273-0.43476 2.6724-0.98896 4.0302-1.6754s2.7301-1.5048 4.1125-2.4664c1.3825-0.96159 2.7757-2.0669 4.1767-3.327s2.8088-2.6751 4.2224-4.2572c1.4135-1.5821 2.7908-2.8268 4.1345-3.7793s2.6547-1.6135 3.9368-2.0233c1.2821-0.40982 2.534-0.5697 3.7628-0.52367 1.2288 0.046 2.4327 0.2991 3.6163 0.7141 1.1837 0.41501 2.3468 0.99295 3.4937 1.6901 1.1468 0.69712 2.2783 1.5136 3.3966 2.406 2.2365 1.7848 4.4237 3.8733 6.5954 5.918s4.3273 4.0445 6.5003 5.6543c1.0865 0.80488 2.1784 1.5124 3.2776 2.0782s2.2068 0.99049 3.327 1.2305 2.2527 0.29543 3.4021 0.12268 2.3141-0.57278 3.5009-1.2451c1.1869-0.67234 2.3949-1.6178 3.6274-2.8766s2.4909-2.8323 3.7774-4.7644c1.2866-1.9321 2.6277-3.5294 4.0119-4.8322s2.8118-2.3104 4.2718-3.0615c1.4601-0.75116 2.9522-1.2462 4.466-1.5234s3.0484-0.33703 4.5941-0.21789c1.5457 0.11913 3.1025 0.41729 4.6582 0.8551 1.5557 0.43782 3.1109 1.0149 4.6545 1.6937 3.0875 1.3577 6.1283 3.1209 9.0363 4.9768s5.683 3.8043 8.2361 5.5371 4.884 3.2503 6.9068 4.2389c1.0113 0.49429 1.9463 0.85561 2.7923 1.0474 0.8459 0.19174 1.6028 0.21407 2.2614 0.0256 0.6584-0.18844 1.2189-0.58783 1.668-1.2341 0.4492-0.6463 0.7873-1.541 1.0053-2.7228 0.2082-1.1294 0.52-2.1234 0.9228-2.9938 0.4029-0.87042 0.8969-1.6175 1.4667-2.254 0.5698-0.63652 1.2155-1.1616 1.9245-1.5894 0.7089-0.42775 1.4811-0.75749 2.3016-1.0016 0.8206-0.2441 1.6902-0.40333 2.5946-0.48889 0.9045-0.0856 1.8445-0.0973 2.8052-0.0494 1.9212 0.0956 3.927 0.43335 5.9069 0.91186s3.9325 1.0974 5.7495 1.7578c1.8171 0.66038 3.4982 1.3619 4.9311 2.0032 2.8657 1.2825 4.7406 2.3254 4.7406 2.3254a162.89 166.68 0 0 0 -0.097 -0.20691 162.89 166.68 0 0 0 -5.4638 -11.576c-1.035-1.9984-2.1735-3.9192-3.2813-5.863a162.89 166.68 0 0 0 -4.1473 -6.9269c-1.191-1.8735-2.3978-3.7341-3.6566-5.5499a162.89 166.68 0 0 0 -5.7221 -7.6996c-0.9213-1.1774-1.7833-2.4105-2.7338-3.5596-0.5423-0.65572-1.1402-1.2542-1.6918-1.9006a162.89 166.68 0 0 0 -7.4836 -8.2214c-1.4194-1.4526-2.891-2.845-4.3597-4.2407a162.89 166.68 0 0 0 -6.557 -5.8942c-1.4752-1.2583-2.931-2.5412-4.4476-3.7445a162.89 166.68 0 0 0 -10.743 -7.8625c-1.3682-0.91438-2.7968-1.7299-4.1913-2.6019a162.89 166.68 0 0 0 -8.3973 -4.9274c-1.6065-0.87509-3.2239-1.7305-4.8596-2.5507a162.89 166.68 0 0 0 -10.003 -4.5813c-1.0493-0.43927-2.0685-0.94333-3.1274-1.3605a162.89 166.68 0 0 0 -13.251 -4.5044c-1.4565-0.43114-2.9347-0.79833-4.4055-1.1884a162.89 166.68 0 0 0 -10.331 -2.3712c-1.438-0.28052-2.8688-0.58453-4.3177-0.8258a162.89 166.68 0 0 0 -14.302 -1.7761c-3.9085-0.29142-7.8439-0.45042-11.805-0.45227z" fill="#ffc373" stroke-width="1.1245"/>
 <path d="m-1327.9-127.61 13.552 166.63h157.47l13.552-166.63z" fill="#fd5" stroke-width="1.1443"/>
 <g transform="matrix(.80241 0 0 .80241 -1535.5 365.15)" stroke-width="1.2244">
  <rect x="159.07" y="-633.13" width="429.18" height="19.033" ry="9.5167" fill="#f60"/>
  <path d="m159.07-623.61c0 5.2723 4.2462 9.5185 9.5185 9.5185h410.14c5.2722 0 9.5161-4.2462 9.5161-9.5185z" fill="#f95"/>
 </g>
 <path d="m-1279.1-127.61 6.379 166.63h74.12l6.3789-166.63z" fill="#fc0" stroke-width="1.1443"/>
 <path d="m-1381.2-127.61 21.379 166.63h12.967l-15.152-166.63z" fill="#f60" stroke-width="1.1443"/>
 <path d="m-1235.6-305.71v2e-3a162.89 166.68 0 0 0 -14.365 0.73437c-1.6652 0.15277-3.3171 0.36796-4.9707 0.57226a162.89 166.68 0 0 0 -9.5469 1.4766c-1.781 0.33084-3.5703 0.6332-5.3339 1.0234a162.89 166.68 0 0 0 -12.666 3.3105c-0.053 0.0164-0.109 0.0264-0.1621 0.043-1.8692 0.58002-3.6858 1.2944-5.5293 1.9414a162.89 166.68 0 0 0 -7.5781 2.8281c-2.2784 0.93117-4.5327 1.9137-6.7637 2.9473a162.89 166.68 0 0 0 -5.789 2.8633c-2.2092 1.133-4.4392 2.2295-6.5938 3.4629-2.5312 1.4489-4.9807 3.035-7.4316 4.6191a162.89 166.68 0 0 0 -2.6817 1.6836c-2.5397 1.7125-4.9983 3.5466-7.4414 5.4023a162.89 166.68 0 0 0 -3.457 2.6894c-2.4868 1.9963-4.9497 4.026-7.3223 6.1699a162.89 166.68 0 0 0 -0.959 0.91407c-2.6227 2.4088-5.1951 4.88-7.666 7.4648-2.4083 2.5194-4.7117 5.1515-6.9668 7.832a162.89 166.68 0 0 0 -1.2089 1.4102c-2.2692 2.76-4.4497 5.6074-6.5489 8.5273a162.89 166.68 0 0 0 -1.1484 1.6426c-2.0636 2.9448-4.0685 5.9422-5.9512 9.0391-2.0987 3.452-4.0836 6.9963-5.9453 10.629-1.8584 3.6262-3.5939 7.3412-5.2031 11.139a162.89 166.68 0 0 0 -0.01 0.0195s6.1415-0.39864 13.43-1.211c3.6441-0.40619 7.5759-0.91394 11.17-1.5293 3.594-0.61534 6.8486-1.3393 9.1445-2.168 1.148-0.4143 2.2807-1.0744 3.4043-1.8926 1.1237-0.81816 2.2402-1.7928 3.3555-2.8301 2.2304-2.0746 4.4581-4.4032 6.75-6.2461 1.146-0.92144 2.3089-1.7201 3.4941-2.3066 1.1851-0.58643 2.3926-0.95861 3.6328-1.0254 0.6202-0.0332 1.2499 0.01 1.8867 0.14062 0.6369 0.13111 1.2819 0.34915 1.9375 0.66797 0.6556 0.31874 1.3199 0.73799 1.9961 1.2676 0.6764 0.52951 1.3655 1.1702 2.0645 1.9336 1.1233 1.2268 2.2145 2.2613 3.2773 3.127 1.0629 0.8656 2.0963 1.5622 3.1016 2.1113 1.0054 0.54911 1.9827 0.95135 2.9336 1.2285 0.1281 0.0373 0.2517 0.0551 0.3789 0.0879a196.37 174.85 3.28 0 1 112.97 -87.479 162.89 166.68 0 0 0 -5.2657 -1.209c-1.438-0.28052-2.8695-0.58491-4.3183-0.82617a162.89 166.68 0 0 0 -14.303 -1.7754c-3.9085-0.29143-7.8438-0.45128-11.805-0.45313zm-94.869 81.197c-1.2402 0.0671-2.4476 0.43889-3.6328 1.0254-1.1852 0.58642-2.3463 1.3852-3.4922 2.3066-2.2919 1.8428-4.5215 4.1716-6.7519 6.2461-1.1152 1.0373-2.2299 2.014-3.3536 2.832-1.1235 0.81817-2.2564 1.4783-3.4043 1.8926-2.2958 0.82866-5.5524 1.5507-9.1464 2.166-3.594 0.61535-7.5259 1.1251-11.17 1.5312-7.2882 0.81232-13.428 1.209-13.428 1.209a162.89 166.68 0 0 0 -13.648 66.291 162.89 166.68 0 0 0 0.1328 3.7871h65.555a196.37 174.85 3.28 0 1 -0.053 -7.4004 196.37 174.85 3.28 0 1 19.967 -71.324c-0.1264-0.0326-0.2498-0.0489-0.377-0.0859-0.9509-0.27716-1.9263-0.67934-2.9316-1.2285-1.0055-0.54911-2.0406-1.2457-3.1035-2.1113s-2.154-1.9001-3.2774-3.127c-0.699-0.76335-1.3862-1.4041-2.0625-1.9336s-1.3424-0.94874-1.998-1.2676c-0.6556-0.31881-1.3007-0.53679-1.9375-0.66797-0.637-0.13119-1.2667-0.17402-1.8868-0.14063z" opacity=".094" stroke-width="1.1245"/>
 <g transform="matrix(.80241 0 0 .80241 -1535.5 365.15)" stroke-width="1.2244">
  <rect x="159.07" y="-633.13" width="429.18" height="19.033" ry="9.5167" fill="#f60"/>
  <path d="m159.07-623.61c0 5.2723 4.2462 9.5185 9.5185 9.5185h410.14c5.2722 0 9.5161-4.2462 9.5161-9.5185z" fill="#f95"/>
 </g>
</svg>
