<?xml version="1.0" encoding="UTF-8"?>
<svg viewBox="0 0 620 580" xmlns="http://www.w3.org/2000/svg">
 <g fill="#fff">
  <g fill="#562900">
   <path d="m218.57 243.57c0 21.697-19.188 39.286-42.857 39.286s-42.857-17.589-42.857-39.286 19.188-39.285 42.857-39.285 42.857 17.588 42.857 39.285z"/>
   <path d="m270 244.29c0 21.697-19.188 39.286-42.857 39.286s-42.857-17.589-42.857-39.286 19.188-39.285 42.857-39.285 42.857 17.588 42.857 39.285z"/>
   <path d="m321.71 245.36c0 21.697-19.188 39.286-42.857 39.286s-42.857-17.589-42.857-39.286 19.188-39.285 42.857-39.285 42.857 17.588 42.857 39.285z"/>
   <path d="m373.14 246.07c0 21.697-19.188 39.286-42.857 39.286s-42.857-17.589-42.857-39.286 19.188-39.285 42.857-39.285 42.857 17.588 42.857 39.285z"/>
   <path d="m421.43 246.22c0 21.697-19.188 39.286-42.857 39.286s-42.857-17.589-42.857-39.286 19.188-39.285 42.857-39.285 42.857 17.588 42.857 39.285z"/>
   <path d="m472.86 246.93c0 21.697-19.188 39.286-42.857 39.286s-42.857-17.589-42.857-39.286 19.188-39.285 42.857-39.285 42.857 17.588 42.857 39.285z"/>
   <path d="m302.87 119c-22.569 0-41.095 13.394-42.75 30.375-60.156 13.053-103.96 52.048-104.41 98.188h297.16c-0.457-46.881-45.694-86.372-107.34-98.781-2.025-16.697-20.352-29.782-42.656-29.782z"/>
   <path d="m179.08 297.08l52.884 154.74 140.07 1.098 50.026-154.74-242.98-1.098z"/>
  </g>
  <g stroke-width="null">
   <g fill="#f39">
    <ellipse cx="229" cy="189.5" rx="11" ry="10.5"/>
    <ellipse cx="279" cy="227" rx="11" ry="10.5"/>
    <ellipse cx="327" cy="188" rx="11" ry="10.5"/>
    <ellipse cx="377" cy="229" rx="11" ry="10.5"/>
    <ellipse cx="176" cy="232" rx="11" ry="10.5"/>
   </g>
   <g fill="#f90">
    <ellipse cx="225" cy="235" rx="11" ry="10.5"/>
    <ellipse cx="276" cy="179" rx="11" ry="10.5"/>
    <ellipse cx="328" cy="238" rx="11" ry="10.5"/>
    <ellipse cx="381" cy="190" rx="11" ry="10.5"/>
    <ellipse cx="428" cy="237" rx="11" ry="10.5"/>
   </g>
   <ellipse cx="298" cy="140" rx="11" ry="10.5" fill="#f39"/>
  </g>
 </g>
</svg>
